<?xml version="1.0" encoding="UTF-8" standalone="no"?>
<svg
   width="138"
   height="56"
   viewBox="0 0 138 56"
   fill="none"
   version="1.1"
   id="svg26"
   sodipodi:docname="logo.svg"
   inkscape:version="1.2.2 (732a01da63, 2022-12-09)"
   xml:space="preserve"
   xmlns:inkscape="http://www.inkscape.org/namespaces/inkscape"
   xmlns:sodipodi="http://sodipodi.sourceforge.net/DTD/sodipodi-0.dtd"
   xmlns="http://www.w3.org/2000/svg"
   xmlns:svg="http://www.w3.org/2000/svg"><defs
     id="defs30" /><sodipodi:namedview
     id="namedview28"
     pagecolor="#ffffff"
     bordercolor="#666666"
     borderopacity="1.0"
     inkscape:showpageshadow="2"
     inkscape:pageopacity="0.0"
     inkscape:pagecheckerboard="0"
     inkscape:deskcolor="#d1d1d1"
     showgrid="false"
     inkscape:zoom="4.3840579"
     inkscape:cx="68.201653"
     inkscape:cy="62.841323"
     inkscape:window-width="1400"
     inkscape:window-height="1028"
     inkscape:window-x="-8"
     inkscape:window-y="-8"
     inkscape:window-maximized="1"
     inkscape:current-layer="svg26" /><path
     style="fill:#ffffff;stroke-width:0.0685305"
     d="m 69.778222,55.259582 c -0.549524,-0.119285 -1.322197,-0.500123 -1.737912,-0.856597 -0.356616,-0.305798 -0.846866,-1.013643 -1.066382,-1.539675 -0.281435,-0.674424 -0.378362,-1.399093 -0.342602,-2.561449 0.03674,-1.19431 0.144377,-1.657097 0.578946,-2.489238 0.665814,-1.274948 2.064084,-2.037723 3.741495,-2.041035 1.640272,-0.0032 2.94154,0.657685 3.494871,1.775075 l 0.183903,0.371391 -0.701515,0.43225 c -0.385834,0.237737 -0.732408,0.432966 -0.770164,0.433844 -0.03776,8.78e-4 -0.142284,-0.137223 -0.232301,-0.306891 -0.409637,-0.772179 -1.087863,-1.105498 -2.128673,-1.046155 -1.137957,0.06488 -1.842042,0.669682 -2.135489,1.834353 -0.126011,0.500174 -0.125969,2.104287 6.8e-5,2.604161 0.299198,1.186497 0.993269,1.783151 2.137951,1.837881 0.769259,0.03677 1.233248,-0.09428 1.658278,-0.468414 0.298476,-0.262726 0.666008,-0.883757 0.666008,-1.125368 0,-0.188024 0.285854,-0.1173 0.925162,0.228859 0.719715,0.389698 0.725304,0.407105 0.370103,1.152499 -0.416058,0.873098 -1.255702,1.527051 -2.26669,1.765386 -0.539872,0.127271 -1.7868,0.126823 -2.375077,-8.9e-4 z m 8.912245,-0.03325 c -1.507532,-0.394976 -2.511488,-1.454774 -2.905454,-3.067058 -0.194879,-0.79753 -0.209401,-2.264907 -0.03035,-3.065152 0.471689,-2.108047 2.01633,-3.323733 4.223106,-3.323733 2.951916,0 4.633252,2.150465 4.314183,5.51793 -0.249246,2.630552 -1.800223,4.085196 -4.342277,4.07257 -0.517077,-0.0026 -0.919577,-0.04557 -1.259216,-0.134552 z m 2.403005,-1.735888 c 0.940144,-0.459972 1.343591,-1.490493 1.263626,-3.227679 -0.06133,-1.332189 -0.373201,-2.073233 -1.05435,-2.505205 -0.406593,-0.257854 -0.956607,-0.36915 -1.588627,-0.321462 -1.460316,0.110189 -2.137039,1.118723 -2.133722,3.179933 0.0034,2.169445 0.788382,3.135965 2.504011,3.083459 0.515117,-0.01581 0.686643,-0.05129 1.009062,-0.209038 z m -46.197055,1.648145 c 0.01238,-0.05107 0.731818,-2.14863 1.598729,-4.661256 l 1.576203,-4.568416 1.216416,-7.32e-4 c 0.669031,-4.13e-4 1.216419,0.01066 1.216419,0.02449 0,0.03105 3.043314,8.843419 3.145511,9.10829 l 0.07342,0.190288 -1.005001,-0.019 -1.005,-0.019 -0.345818,-1.045091 -0.34582,-1.045091 h -1.763595 -1.763595 l -0.33807,1.045091 -0.338071,1.045091 -0.972127,0.019 c -0.790169,0.01559 -0.967912,0.0016 -0.949603,-0.0738 z m 5.442869,-4.108482 c -0.480759,-1.548179 -1.041034,-3.133056 -1.100564,-3.113214 -0.05704,0.019 -1.197227,3.398718 -1.200564,3.558662 -6.17e-4,0.02827 0.551635,0.0514 1.22717,0.0514 h 1.228245 z m 4.636036,-0.445448 0.01751,-4.642944 2.124448,-0.02028 c 2.74245,-0.02629 3.164827,0.05085 3.865218,0.705986 0.516945,0.483541 0.657749,0.864889 0.657777,1.781482 1.9e-5,0.687391 -0.01644,0.784872 -0.185697,1.105935 -0.224964,0.426502 -0.622673,0.779798 -1.120235,0.995137 -0.394675,0.170813 -0.446198,0.230776 -0.251402,0.292606 0.207756,0.06594 0.635177,0.529321 0.814316,0.88283 0.09409,0.185675 0.413625,1.058652 0.710076,1.939943 l 0.539003,1.602338 H 51.172748 50.199065 L 49.669077,53.6328 c -0.726542,-2.186273 -0.779063,-2.241743 -2.123385,-2.24251 l -0.668169,-3.87e-4 v 1.918855 1.918854 h -0.959906 -0.959906 z m 4.293607,-0.873765 c 0.384966,-0.226753 0.513609,-0.459924 0.543261,-0.984693 0.03481,-0.616075 -0.129108,-0.960411 -0.555441,-1.166797 -0.262908,-0.127271 -0.420752,-0.14429 -1.338638,-0.14429 h -1.040588 v 1.239571 1.239571 l 1.079356,-0.02315 c 0.929841,-0.01986 1.111592,-0.04213 1.31205,-0.16022 z m 4.409774,0.873765 0.01751,-4.642944 2.192976,-0.02028 c 2.373184,-0.02204 2.766292,0.01452 3.379803,0.314457 0.418268,0.204467 0.723594,0.522989 0.930034,0.970231 0.112367,0.243433 0.144034,0.44721 0.144312,0.928644 3.43e-4,0.56323 -0.01815,0.649495 -0.212005,0.993693 -0.118944,0.211108 -0.350674,0.482439 -0.526751,0.616774 -0.172906,0.131927 -0.324061,0.266423 -0.335882,0.298895 -0.01175,0.03248 0.147793,0.122189 0.354674,0.199363 0.259208,0.09669 0.497297,0.261449 0.765744,0.529897 0.331543,0.331543 0.412179,0.463993 0.541313,0.889143 0.377166,1.241738 -0.119606,2.610328 -1.151311,3.171854 -0.651348,0.354507 -0.994175,0.391179 -3.667666,0.392281 l -2.450446,10e-4 0.01751,-4.642944 z m 4.646461,3.067029 c 0.487502,-0.135429 0.819327,-0.651623 0.819327,-1.274557 0,-0.580379 -0.238586,-0.978376 -0.719571,-1.200367 -0.235193,-0.108545 -0.456595,-0.126738 -1.55907,-0.12802 l -1.284946,-0.0015 v 1.336347 1.336346 l 1.250682,-6.85e-4 c 0.687875,0 1.359985,-0.03075 1.493578,-0.06786 z m -0.234832,-4.219152 c 0.363376,-0.271572 0.463162,-0.473982 0.4621,-0.937346 -0.0013,-0.55921 -0.148926,-0.844173 -0.526106,-1.015417 -0.242217,-0.109976 -0.45422,-0.130411 -1.366066,-0.131671 l -1.079356,-0.0015 v 1.136532 1.136531 l 1.160185,-0.02291 c 1.044268,-0.02071 1.179074,-0.03702 1.349243,-0.164214 z m 4.686278,1.134991 V 45.90745 h 0.959428 0.959427 v 4.660077 4.660076 H 63.736038 62.77661 Z m 23.437447,-0.0047 V 45.898 l 2.381434,0.02364 c 2.298707,0.02282 2.395205,0.02912 2.777702,0.181832 0.217948,0.08699 0.526334,0.257089 0.685307,0.377967 0.789586,0.600376 1.087304,1.926481 0.657049,2.926647 -0.177733,0.413161 -0.705577,0.916668 -1.158133,1.104739 -0.187341,0.07786 -0.340631,0.167504 -0.340631,0.199194 0,0.03171 0.08885,0.103571 0.197442,0.15973 0.240569,0.12441 0.514075,0.440954 0.707289,0.818605 0.110082,0.215164 1.219727,3.417886 1.219727,3.520449 0,0.01131 -0.437841,0.01218 -0.972988,0.0016 l -0.972991,-0.019 -0.488889,-1.515195 c -0.268894,-0.83336 -0.560526,-1.631103 -0.648074,-1.772757 -0.24203,-0.391624 -0.575772,-0.512177 -1.42294,-0.513986 l -0.702437,-0.0016 v 1.918857 1.918853 h -0.959428 -0.959429 v -4.664832 z m 4.314998,-0.854301 c 0.360744,-0.21192 0.516404,-0.531387 0.516404,-1.059798 0,-0.566683 -0.161523,-0.866496 -0.581467,-1.079356 -0.274706,-0.139229 -0.402494,-0.154199 -1.317644,-0.154199 h -1.013435 v 1.240731 1.240729 l 1.079356,-0.02432 c 0.934857,-0.02115 1.111139,-0.04299 1.316786,-0.163809 z m 4.38838,0.859031 v -4.660078 h 2.110049 c 2.230221,0 2.562701,0.03611 3.212186,0.348795 0.67126,0.323168 1.20628,1.027619 1.39443,1.836042 0.10651,0.457634 0.0546,1.432535 -0.0989,1.858464 -0.28235,0.783325 -0.92203,1.38645 -1.758125,1.657658 -0.3569,0.115784 -0.67437,0.14884 -1.690134,0.175981 l -1.250681,0.03344 v 1.704896 1.704888 h -0.959428 -0.959428 z m 4.24996,-0.482848 c 0.42158,-0.230724 0.61571,-0.620604 0.61571,-1.23657 0,-0.539564 -0.12223,-0.870945 -0.41081,-1.113766 -0.30701,-0.258334 -0.61377,-0.318413 -1.627974,-0.318839 l -0.908031,-3.82e-4 v 1.447622 1.447621 l 1.011888,-0.02875 c 0.914797,-0.02599 1.041377,-0.04488 1.319217,-0.196929 z M 32.903957,45.451562 c -0.184075,-0.187811 -0.239966,-0.308384 -0.265338,-0.572465 -0.0524,-0.545459 0.02219,-0.752989 0.430498,-1.197485 0.20703,-0.225383 0.376419,-0.432481 0.376419,-0.460218 0,-0.02773 0.09252,-0.145081 0.205599,-0.260749 0.113072,-0.115676 0.2056,-0.240093 0.2056,-0.276485 0,-0.03639 0.0256,-0.06618 0.05691,-0.06618 0.03131,0 0.161781,-0.14649 0.289945,-0.325519 0.128169,-0.179034 0.333847,-0.426775 0.457066,-0.550529 0.123214,-0.123748 0.224034,-0.254819 0.224034,-0.291253 0,-0.03643 0.02877,-0.06625 0.06391,-0.06625 0.03515,0 0.08121,-0.05396 0.102355,-0.119926 0.02114,-0.06596 0.138866,-0.232802 0.261607,-0.370759 0.38574,-0.433544 0.493838,-0.566232 0.617322,-0.757761 0.06601,-0.102398 0.212496,-0.280762 0.32552,-0.396383 0.113029,-0.115612 0.205493,-0.224575 0.205493,-0.242122 0,-0.01751 0.05396,-0.08966 0.119925,-0.160285 0.06596,-0.07062 0.197016,-0.232053 0.291256,-0.358757 0.09424,-0.126694 0.271553,-0.332085 0.394051,-0.456407 0.122489,-0.124325 0.222724,-0.243703 0.222724,-0.265289 0,-0.04534 0.406249,-0.573836 0.519444,-0.675751 0.04186,-0.03769 0.225738,-0.268983 0.408609,-0.51398 0.182878,-0.244995 0.403514,-0.513364 0.490319,-0.59637 0.08681,-0.08301 0.157831,-0.167823 0.157831,-0.188452 0,-0.02071 0.05396,-0.0953 0.119925,-0.165923 0.06596,-0.07062 0.197016,-0.231474 0.291256,-0.357468 0.09424,-0.125992 0.225294,-0.284094 0.291254,-0.351331 0.06596,-0.06723 0.119925,-0.137671 0.119925,-0.156505 0,-0.01879 0.05396,-0.09204 0.119926,-0.162656 0.06596,-0.07062 0.197015,-0.230233 0.291254,-0.354714 0.09424,-0.124475 0.208695,-0.263775 0.254368,-0.309546 0.04568,-0.04577 0.243933,-0.294762 0.440579,-0.553317 0.196651,-0.258553 0.429115,-0.538013 0.516601,-0.621019 0.08749,-0.08301 0.159773,-0.175532 0.160648,-0.205599 0.0015,-0.05007 0.222167,-0.315291 0.653459,-0.78522 0.09202,-0.100256 0.167312,-0.201798 0.167312,-0.225616 0,-0.02384 0.02996,-0.08057 0.06658,-0.126077 0.115015,-0.142967 0.412645,-0.486938 0.575668,-0.665278 0.08614,-0.09424 0.213956,-0.259573 0.284046,-0.367427 0.140021,-0.215478 0.376738,-0.502556 0.667039,-0.808983 0.103658,-0.109419 0.188452,-0.223797 0.188452,-0.254193 0,-0.03039 0.138782,-0.202183 0.308388,-0.381745 0.169618,-0.179567 0.308386,-0.355049 0.308386,-0.389969 0,-0.03492 0.04625,-0.08125 0.102797,-0.102926 0.05654,-0.02169 0.102796,-0.0775 0.102796,-0.124005 0,-0.04651 0.138782,-0.231478 0.308386,-0.41104 0.169617,-0.179569 0.308389,-0.354083 0.308389,-0.38782 0,-0.03374 0.03005,-0.06133 0.06677,-0.06133 0.03672,0 0.111149,-0.08482 0.165389,-0.188452 0.05424,-0.103657 0.196908,-0.296393 0.317022,-0.428315 0.120118,-0.131928 0.359226,-0.424889 0.531344,-0.65104 0.172116,-0.226151 0.400317,-0.494252 0.507105,-0.595779 0.106791,-0.101516 0.194154,-0.218141 0.194154,-0.259141 0,-0.041 0.04625,-0.09229 0.102796,-0.113989 0.05654,-0.02169 0.102797,-0.0775 0.102797,-0.124005 0,-0.04651 0.138781,-0.231479 0.308386,-0.411041 0.169617,-0.179568 0.308388,-0.354082 0.308388,-0.38782 0,-0.03374 0.02877,-0.06135 0.06391,-0.06135 0.03515,0 0.08114,-0.05396 0.102225,-0.119925 0.02114,-0.06596 0.180679,-0.272591 0.354687,-0.459175 0.173995,-0.186595 0.367,-0.417864 0.428882,-0.51395 0.146982,-0.228235 0.334742,-0.455701 0.609361,-0.738263 0.122488,-0.126055 0.222723,-0.246833 0.222723,-0.26842 0,-0.0633 0.419534,-0.591124 0.629365,-0.791816 0.106156,-0.101516 0.193001,-0.205023 0.193001,-0.229995 0,-0.05422 0.37597,-0.535435 0.616774,-0.789436 0.09424,-0.0994 0.217583,-0.250937 0.274121,-0.336762 0.154071,-0.233879 0.544157,-0.700753 0.728285,-0.871641 0.08944,-0.08301 0.162613,-0.177283 0.162613,-0.209506 0,-0.06777 0.278171,-0.414605 0.599642,-0.747656 0.122509,-0.126908 0.222725,-0.248878 0.222725,-0.271038 0,-0.05157 0.402715,-0.565865 0.583612,-0.745319 0.076,-0.07539 0.222362,-0.260416 0.325268,-0.411183 0.102904,-0.150762 0.341001,-0.443735 0.529098,-0.651039 0.188089,-0.207308 0.342406,-0.398985 0.342906,-0.425953 4.78e-4,-0.02697 0.09342,-0.143672 0.206496,-0.259352 0.113071,-0.115677 0.2056,-0.240094 0.2056,-0.276488 0,-0.03639 0.02549,-0.06618 0.05665,-0.06618 0.03116,0 0.190693,-0.185035 0.354532,-0.411184 0.163831,-0.226151 0.323373,-0.411183 0.354531,-0.411183 0.03116,0 0.05665,-0.03231 0.05665,-0.07179 0,-0.03948 0.06989,-0.13972 0.155288,-0.222725 0.08542,-0.08301 0.239158,-0.274274 0.341654,-0.425043 0.102506,-0.150761 0.294741,-0.391484 0.427212,-0.534925 0.132461,-0.143437 0.240858,-0.282283 0.240858,-0.308535 0,-0.02625 0.138782,-0.196738 0.308386,-0.378869 0.169617,-0.182131 0.308388,-0.343965 0.308388,-0.359639 0,-0.01559 0.05396,-0.08627 0.119927,-0.15689 0.06596,-0.07062 0.197014,-0.232051 0.291256,-0.358754 0.09424,-0.126695 0.26384,-0.324998 0.376915,-0.440655 0.113072,-0.115655 0.24613,-0.287423 0.295677,-0.381704 0.04955,-0.09428 0.173226,-0.262244 0.274864,-0.373254 0.101623,-0.111021 0.351744,-0.417708 0.555816,-0.681551 0.204062,-0.2638416 0.442738,-0.5476278 0.530371,-0.6306336 0.08764,-0.083004 0.159325,-0.1678236 0.159325,-0.1884519 0,-0.020713 0.05396,-0.095304 0.119925,-0.1659229 0.06596,-0.070619 0.197016,-0.2314722 0.291254,-0.3574691 0.09424,-0.1259905 0.225295,-0.2840935 0.291256,-0.3513276 0.06596,-0.067224 0.119925,-0.1530891 0.119925,-0.1907795 0,-0.037691 0.03005,-0.068526 0.06677,-0.068526 0.03672,0 0.112089,-0.084798 0.167461,-0.1884519 0.05537,-0.1036534 0.187618,-0.2809737 0.293871,-0.3940491 0.106263,-0.113071 0.361351,-0.4214636 0.56689,-0.6853068 0.205536,-0.2638411 0.444153,-0.5476272 0.530254,-0.6306357 0.0861,-0.083004 0.156569,-0.1755324 0.156612,-0.2055993 2.8e-5,-0.030067 0.100256,-0.1682934 0.222723,-0.3071711 0.47176,-0.5349576 0.599589,-0.6877904 0.599589,-0.7168665 0,-0.016656 0.02996,-0.067352 0.06658,-0.1128789 0.115014,-0.1429672 0.412647,-0.4869382 0.575668,-0.6652808 0.08614,-0.094236 0.213957,-0.2595702 0.284046,-0.3674246 0.14002,-0.2154799 0.376737,-0.5025567 0.667038,-0.8089848 0.103658,-0.1094188 0.188495,-0.2209908 0.188516,-0.2479614 2.7e-5,-0.02697 0.100256,-0.1626558 0.222723,-0.3015354 0.498799,-0.5656204 0.599589,-0.6888308 0.599589,-0.7329661 0,-0.025408 0.0925,-0.1474937 0.2056,-0.2713069 0.11307,-0.1238122 0.205599,-0.2540304 0.205599,-0.2893954 0,-0.035367 0.07807,-0.064296 0.173482,-0.064296 0.09541,0 0.191228,-0.046252 0.212924,-0.1027965 0.05806,-0.1512952 0.782215,-0.1385684 1.070122,0.018787 0.406546,0.2222386 0.593624,0.3690195 0.634505,0.4978262 0.02225,0.07011 0.177647,0.2727055 0.345327,0.4502199 0.167674,0.1775187 0.304868,0.3469691 0.304868,0.3765678 0,0.029597 0.108394,0.1711763 0.240876,0.3146175 0.132482,0.143437 0.370737,0.4381272 0.529454,0.6548558 0.158727,0.216727 0.312453,0.3940489 0.341634,0.3940489 0.02916,0 0.05304,0.046253 0.05304,0.1027997 0,0.056547 0.0255,0.1027996 0.05665,0.1027996 0.03116,0 0.190695,0.1850352 0.354532,0.4111817 0.16383,0.2261529 0.323374,0.4111838 0.354532,0.4111838 0.03116,0 0.05665,0.029768 0.05665,0.066177 0,0.036388 0.0925,0.1608194 0.205599,0.276485 0.113071,0.1156764 0.205749,0.232382 0.205919,0.2593525 2.06e-4,0.026971 0.100407,0.1600292 0.222727,0.2956995 0.331528,0.3677021 0.483306,0.555272 0.616541,0.7619263 0.06601,0.1023937 0.204788,0.2730341 0.308389,0.3792099 0.27149,0.2782424 0.63381,0.745998 0.63381,0.8182524 0,0.034039 0.0912,0.1375432 0.202696,0.2299966 0.11149,0.092464 0.203997,0.1893274 0.205599,0.2152793 0.0016,0.025946 0.09541,0.1484552 0.208483,0.2722612 0.11307,0.1238123 0.205599,0.250533 0.205599,0.2816249 0,0.031092 0.06977,0.1244529 0.155053,0.2074571 0.201478,0.1960967 0.667314,0.778241 0.667314,0.8339005 0,0.023729 0.07049,0.1110433 0.156655,0.1940686 0.194175,0.187064 0.597183,0.7028491 0.597183,0.7642901 0,0.02497 0.08685,0.128468 0.192999,0.229994 0.219431,0.20987 0.629366,0.729624 0.629366,0.797964 0,0.02497 0.08736,0.128468 0.194153,0.229995 0.106791,0.101515 0.344153,0.385048 0.527477,0.630043 0.183327,0.244997 0.396633,0.507399 0.474014,0.583115 0.07739,0.07572 0.217793,0.252828 0.312023,0.393582 0.09424,0.140747 0.194453,0.256129 0.222726,0.256385 0.02827,2.75e-4 0.0514,0.03075 0.0514,0.06775 0,0.037 0.109163,0.179697 0.242599,0.317095 0.133423,0.137394 0.288416,0.33841 0.344414,0.446696 0.056,0.108288 0.131863,0.196887 0.168592,0.196887 0.03672,0 0.06677,0.02825 0.06677,0.06276 0,0.03453 0.138782,0.211771 0.308389,0.393904 0.169617,0.182131 0.308386,0.354334 0.308386,0.382684 0,0.02836 0.05396,0.10692 0.119925,0.174614 0.165539,0.169873 0.58672,0.693169 0.659776,0.819754 0.06093,0.105574 0.231154,0.311322 0.497589,0.601433 0.08059,0.08777 0.24773,0.300464 0.371404,0.472676 0.123684,0.172223 0.250473,0.313112 0.281773,0.313112 0.03131,0 0.05691,0.02894 0.05691,0.0643 0,0.03537 0.0925,0.165582 0.205599,0.289394 0.113072,0.123813 0.2056,0.261911 0.2056,0.306908 0,0.04499 0.02705,0.09208 0.06011,0.104659 0.08305,0.03156 0.760905,0.83243 0.761655,0.89988 3.44e-4,0.03007 0.0722,0.122595 0.159666,0.205599 0.08749,0.08301 0.311846,0.351375 0.498576,0.59637 0.186722,0.244999 0.406247,0.522547 0.48782,0.616776 0.374724,0.432875 0.430762,0.50328 0.431071,0.541598 0,0.02251 0.100407,0.151915 0.222723,0.287576 0.327722,0.363483 0.483142,0.554992 0.609033,0.750464 0.06188,0.09609 0.254878,0.327361 0.428884,0.513949 0.173995,0.186594 0.333605,0.393216 0.354686,0.459176 0.02115,0.06597 0.06707,0.119925 0.102226,0.119925 0.03515,0 0.06392,0.02927 0.06392,0.06507 0,0.03579 0.138781,0.211984 0.308414,0.391552 0.169617,0.179568 0.325898,0.381585 0.347272,0.448919 0.02137,0.06733 0.06763,0.122425 0.102754,0.122425 0.03515,0 0.06391,0.03259 0.06391,0.07239 0,0.0398 0.08685,0.155459 0.193001,0.256988 0.209699,0.200581 0.629363,0.7285 0.629363,0.791737 0,0.02154 0.09174,0.133038 0.203891,0.247748 0.112153,0.114716 0.333977,0.385619 0.492968,0.602004 0.158984,0.216388 0.32402,0.42427 0.366742,0.461963 0.116381,0.102688 0.512608,0.629772 0.512608,0.681898 0,0.02497 0.08685,0.128468 0.193001,0.229995 0.213574,0.204275 0.629364,0.728942 0.629364,0.794175 0,0.02289 0.118132,0.157232 0.262532,0.298525 0.144377,0.141301 0.290872,0.307225 0.325521,0.368716 0.07024,0.124667 0.485059,0.644941 0.647996,0.812726 0.05791,0.05964 0.176067,0.22295 0.262576,0.362919 0.08651,0.139977 0.185611,0.254491 0.22023,0.254491 0.03461,0 0.06293,0.02762 0.06293,0.06135 0,0.03374 0.138782,0.208246 0.308388,0.387819 0.169618,0.179569 0.308387,0.355181 0.308387,0.390262 0,0.03509 0.0753,0.145828 0.167311,0.246089 0.416001,0.453271 0.651991,0.734285 0.653459,0.778132 8.9e-4,0.02618 0.109974,0.16494 0.242448,0.308386 0.132461,0.143437 0.324718,0.38416 0.427212,0.534925 0.102495,0.150762 0.248526,0.335802 0.32452,0.411184 0.186849,0.185355 0.583613,0.694472 0.583613,0.748874 0,0.02411 0.08479,0.127657 0.188451,0.230092 0.228283,0.225595 0.633908,0.736755 0.633908,0.798829 0,0.02464 0.07168,0.112731 0.159325,0.195735 0.08764,0.08301 0.326293,0.366792 0.530349,0.630635 0.204062,0.263843 0.408723,0.519279 0.45481,0.567636 0.04608,0.04836 0.182707,0.225681 0.303631,0.394051 0.120908,0.16838 0.245459,0.30613 0.276759,0.30613 0.0313,0 0.0569,0.03083 0.0569,0.06853 0,0.03769 0.054,0.123535 0.11992,0.190779 0.066,0.06722 0.19702,0.225333 0.29126,0.351328 0.0942,0.12599 0.22529,0.286857 0.29125,0.357468 0.066,0.07062 0.11993,0.142733 0.11993,0.160287 0,0.0175 0.0925,0.126502 0.20549,0.242121 0.11303,0.115612 0.259495,0.293993 0.325515,0.396383 0.13378,0.2075 0.28692,0.396597 0.61704,0.761928 0.12259,0.135664 0.2403,0.300631 0.2616,0.366591 0.0213,0.06596 0.0675,0.119927 0.10263,0.119927 0.0351,0 0.0639,0.02762 0.0639,0.06135 0,0.03374 0.13878,0.208247 0.30838,0.38782 0.16962,0.179569 0.30839,0.364531 0.30839,0.411041 0,0.04651 0.0463,0.102312 0.1028,0.124004 0.0565,0.02169 0.10279,0.06801 0.10279,0.102926 0,0.03491 0.13878,0.210404 0.30839,0.389971 0.16962,0.179568 0.30839,0.365258 0.30839,0.412661 0,0.0474 0.0258,0.09646 0.0573,0.109035 0.10137,0.04045 0.90217,1.006299 0.90217,1.088115 0,0.04347 0.0507,0.185761 0.11254,0.316194 0.10568,0.222723 0.10463,0.260435 -0.0171,0.619448 -0.0855,0.252171 -0.20186,0.437386 -0.34174,0.544166 l -0.21206,0.161865 h -9.503837 -9.503844 l -0.06684,-0.175788 c -0.0406,-0.106769 -0.06684,-1.715077 -0.06684,-4.097059 v -3.921265 l -0.222727,-0.131265 c -0.252089,-0.148583 -0.321681,-0.201649 -0.597516,-0.45559 -0.193726,-0.178352 -0.196397,-0.178736 -0.235163,-0.03428 -0.02156,0.08038 -0.03963,2.02067 -0.04015,4.311774 -8.37e-4,3.718207 -0.01281,4.183784 -0.111618,4.334557 l -0.11068,0.168912 h -1.349023 c -0.957865,0 -1.372868,-0.02385 -1.431259,-0.08223 -0.06295,-0.06295 -0.08223,-1.822914 -0.08223,-7.504096 0,-5.376816 -0.02093,-7.421857 -0.07581,-7.421857 -0.04169,0 -0.192616,-0.0925 -0.33538,-0.205599 -0.142775,-0.113072 -0.280331,-0.205599 -0.305689,-0.205599 -0.02536,0 -0.147195,-0.07709 -0.27073,-0.171326 -0.123535,-0.09424 -0.244838,-0.171326 -0.269549,-0.171326 -0.02471,0 -0.04493,3.470444 -0.04493,7.712098 0,6.983873 -0.01044,7.728048 -0.11068,7.881013 l -0.110679,0.168912 h -3.38197 c -3.273515,0 -3.384243,-0.0043 -3.45291,-0.132546 -0.04818,-0.09001 -0.07131,-4.296319 -0.07203,-13.106467 l -0.001,-12.973909 -0.187363,-0.215722 C 71.050368,19.154623 70.9198,18.988911 70.863262,18.90503 c -0.05654,-0.08388 -0.236345,-0.295199 -0.399573,-0.469582 -0.163233,-0.17438 -0.344097,-0.386456 -0.401933,-0.471262 -0.05783,-0.08479 -0.132439,-0.1542 -0.165795,-0.1542 -0.03498,0 -0.06065,5.788476 -0.06065,13.674255 0,12.472274 -0.0098,13.689104 -0.110679,13.843172 l -0.11068,0.168912 h -1.349023 c -0.957865,0 -1.372868,-0.02386 -1.431259,-0.08223 -0.06342,-0.06342 -0.08223,-3.248132 -0.08223,-13.917583 V 17.661108 l -0.239888,0.246987 c -0.131926,0.135834 -0.239856,0.274695 -0.239856,0.308558 0,0.03387 -0.02366,0.07185 -0.05257,0.08442 -0.02892,0.0126 -0.175404,0.176344 -0.325518,0.363959 -0.150121,0.187618 -0.350046,0.414163 -0.444277,0.503445 l -0.171326,0.162335 -0.03427,13.031336 c -0.02996,11.392956 -0.04711,13.050722 -0.136412,13.18553 l -0.10214,0.154199 h -3.259274 c -2.443617,0 -3.279856,-0.0205 -3.341512,-0.08223 -0.06306,-0.06306 -0.08247,-2.048718 -0.08329,-8.51492 -5.46e-4,-4.637978 -0.02371,-8.399737 -0.0514,-8.359469 -0.02769,0.04028 -0.252692,0.22714 -0.500001,0.415267 -0.247306,0.188132 -0.609661,0.493071 -0.805233,0.677656 l -0.355583,0.335602 v 7.595136 c 0,6.876204 -0.01044,7.611122 -0.11068,7.764049 l -0.110705,0.168912 h -1.294198 c -0.711809,0 -1.301265,-0.0076 -1.309903,-0.01709 -0.0085,-0.0094 -0.03177,-1.753928 -0.0514,-3.876682 l -0.0357,-3.859549 -0.316998,0.29596 c -0.174359,0.162784 -0.41335,0.383383 -0.531113,0.490229 l -0.214108,0.194262 v 3.210232 c 0,2.762163 -0.01431,3.224578 -0.102796,3.313026 -0.05654,0.05654 -0.102797,0.135834 -0.102797,0.176215 0,0.05189 -2.828361,0.0716 -9.645675,0.06723 l -9.645689,-0.0062 -0.233193,-0.237916 z m 16.577728,-5.297895 v -2.806979 l 0.188452,-0.177241 c 0.103657,-0.09748 0.288684,-0.240023 0.411183,-0.316751 0.122489,-0.07672 0.222723,-0.167823 0.222723,-0.202439 0,-0.03461 0.02762,-0.06295 0.06136,-0.06295 0.03374,0 0.208268,-0.138782 0.38782,-0.308389 0.179568,-0.169617 0.368798,-0.308386 0.420522,-0.308386 0.05172,0 0.111789,-0.04625 0.133486,-0.102796 0.02169,-0.05654 0.06438,-0.102796 0.09487,-0.102796 0.03049,0 0.204446,-0.138782 0.386572,-0.308386 0.18213,-0.169618 0.367183,-0.308389 0.411238,-0.308389 0.04406,0 0.09037,-0.02816 0.102947,-0.06261 0.0126,-0.03444 0.238716,-0.236471 0.502557,-0.448954 0.263843,-0.212498 0.579941,-0.467218 0.70244,-0.566074 l 0.222723,-0.179739 v -2.497511 -2.497513 l 0.256989,-0.251333 c 0.141344,-0.138227 0.38329,-0.349295 0.537659,-0.469025 0.15437,-0.119734 0.447334,-0.376191 0.651039,-0.56991 0.203699,-0.193727 0.584609,-0.526419 0.846451,-0.739331 0.261842,-0.212902 0.60875,-0.515395 0.770903,-0.67219 0.429229,-0.415038 1.116293,-1.01304 1.197092,-1.041915 0.03835,-0.01366 0.228822,-0.185547 0.423287,-0.381889 0.194473,-0.196332 0.661962,-0.613339 1.038881,-0.926673 0.376919,-0.313332 0.700724,-0.588644 0.71957,-0.611804 0.01879,-0.02315 0.102818,-0.100105 0.186615,-0.171005 0.150057,-0.126951 0.154947,-0.126439 0.324336,0.03427 l 0.171987,0.163147 0.0012,9.851265 0.0012,9.851266 h 0.65104 0.651039 V 30.492897 18.025163 l 0.685304,-0.694957 c 0.376919,-0.382225 0.685307,-0.707643 0.685307,-0.723149 0,-0.01559 0.100213,-0.134254 0.222724,-0.263888 0.12251,-0.129621 0.484854,-0.519978 0.805235,-0.867436 0.320379,-0.347458 0.898606,-0.95438 1.284947,-1.348715 0.38634,-0.394335 0.702437,-0.728795 0.702437,-0.743243 0,-0.01452 0.177326,-0.217953 0.394051,-0.452233 0.831238,-0.898551 1.309081,-1.357902 1.412578,-1.357902 0.101558,0 0.523411,0.360265 0.523411,0.447003 0,0.02223 0.08685,0.123514 0.193,0.225035 0.106156,0.101515 0.298892,0.322138 0.428314,0.490246 0.129429,0.168101 0.347901,0.430236 0.485505,0.582509 0.625942,0.692663 0.740425,0.828729 0.741913,0.881773 8.78e-4,0.03118 0.0864,0.144013 0.190054,0.250768 0.292548,0.301305 0.513983,0.55634 0.772922,0.890208 0.130837,0.16872 0.330419,0.403281 0.443494,0.521263 0.280195,0.292353 0.748064,0.855183 0.779536,0.937756 0.01409,0.03709 0.1375,0.180486 0.274122,0.318655 0.309284,0.312776 0.715449,0.813915 0.820277,1.012079 0.05904,0.11162 0.07919,3.288193 0.07919,12.489693 v 12.340003 h 0.827739 0.827738 l -0.03935,-3.580722 c -0.02165,-1.969396 -0.05746,-6.178871 -0.07958,-9.354388 -0.03752,-5.385343 -0.03242,-5.776667 0.07589,-5.818229 0.130155,-0.04995 0.471873,0.126782 0.689784,0.35675 0.07893,0.08328 0.209977,0.172543 0.291254,0.198339 0.08127,0.0258 0.147771,0.07566 0.147771,0.110808 0,0.03515 0.04721,0.06391 0.104939,0.06391 0.05772,0 0.122701,0.04625 0.144397,0.102797 0.02169,0.05654 0.0824,0.102796 0.134917,0.102796 0.05251,0 0.09545,0.04625 0.09545,0.102796 0,0.05654 0.05479,0.102797 0.121783,0.102797 0.06699,0 0.22308,0.0925 0.346882,0.205599 0.123813,0.113071 0.254031,0.205599 0.289396,0.205599 0.03537,0 0.0643,0.02877 0.0643,0.06391 0,0.03515 0.05396,0.08106 0.119926,0.102032 0.06597,0.02093 0.197506,0.107861 0.292308,0.193086 0.09482,0.08523 0.349226,0.274349 0.565376,0.420285 0.216149,0.145935 0.392997,0.292418 0.392997,0.325521 0,0.0331 0.03164,0.06017 0.07032,0.06017 0.09272,0 0.752057,0.49347 0.752057,0.562872 0,0.02964 0.04032,0.0539 0.08957,0.0539 0.08542,0 0.412316,0.239698 0.677592,0.496847 0.06805,0.06597 0.170942,0.119925 0.228668,0.119925 0.05772,0 0.122702,0.04625 0.144399,0.102797 0.02169,0.05654 0.0824,0.102796 0.134916,0.102796 0.05251,0 0.09545,0.02819 0.09545,0.06265 0,0.03446 0.14649,0.1539 0.325521,0.26543 0.179034,0.111533 0.418036,0.283747 0.531112,0.382712 0.113071,0.09895 0.227404,0.179973 0.254065,0.180016 0.02667,4.5e-5 0.0575,0.90877 0.06853,2.019381 l 0.02007,2.019301 0.367574,0.345004 c 0.202162,0.189755 0.382762,0.345005 0.401323,0.345005 0.04775,0 0.574642,0.413159 0.739719,0.58005 0.07589,0.07673 0.26915,0.228868 0.429434,0.338075 0.160285,0.109205 0.401055,0.301945 0.535045,0.428316 0.133998,0.126374 0.265391,0.229762 0.291994,0.229762 0.0266,0 0.149673,0.0925 0.273479,0.205599 0.123791,0.113071 0.239644,0.205599 0.257435,0.205599 0.01772,0 0.122787,0.0925 0.233319,0.2056 0.11053,0.11307 0.231764,0.205599 0.269401,0.205599 0.188282,0 0.210319,0.358492 0.210319,3.42202 v 3.156911 h 6.064955 c 3.997612,0 6.064954,-0.02336 6.064954,-0.06853 0,-0.03769 -0.054,-0.126182 -0.11993,-0.196652 -0.24086,-0.257319 -0.471797,-0.529792 -0.70439,-0.831074 -0.255728,-0.331252 -0.386615,-0.488052 -0.734695,-0.880149 -0.122467,-0.13795 -0.222698,-0.283118 -0.222723,-0.322578 -2.8e-5,-0.03946 -0.09127,-0.147389 -0.202738,-0.239857 -0.11147,-0.09246 -0.203998,-0.189327 -0.205599,-0.215279 -0.0016,-0.02595 -0.09541,-0.148455 -0.208483,-0.272263 -0.113071,-0.123791 -0.205599,-0.248033 -0.205599,-0.276069 0,-0.02804 -0.100213,-0.154092 -0.222723,-0.280139 -0.27811,-0.286155 -0.462404,-0.510137 -0.616871,-0.749728 -0.06601,-0.102398 -0.207863,-0.276032 -0.315241,-0.385871 -0.107372,-0.109846 -0.344112,-0.396116 -0.526089,-0.63617 -0.181981,-0.240057 -0.379342,-0.48473 -0.438594,-0.543718 -0.05924,-0.05898 -0.184822,-0.209378 -0.279049,-0.334197 -0.09424,-0.124816 -0.225296,-0.284716 -0.291256,-0.355329 -0.06596,-0.07062 -0.119927,-0.145274 -0.119927,-0.165922 0,-0.02071 -0.0707,-0.105445 -0.157124,-0.188452 -0.199108,-0.19125 -0.665247,-0.768295 -0.665247,-0.823521 0,-0.02293 -0.138589,-0.184309 -0.307983,-0.358599 -0.169382,-0.174294 -0.361067,-0.406763 -0.425959,-0.51661 -0.0649,-0.109847 -0.142177,-0.199727 -0.17173,-0.199727 -0.02957,0 -0.05375,-0.03188 -0.05375,-0.07083 0,-0.03897 -0.08479,-0.154648 -0.188452,-0.257085 -0.22928,-0.226586 -0.633906,-0.73686 -0.633906,-0.799422 0,-0.02497 -0.08736,-0.128467 -0.194154,-0.229994 -0.10679,-0.101516 -0.334842,-0.369628 -0.506791,-0.595779 -0.171945,-0.226151 -0.438985,-0.549959 -0.593425,-0.719573 -0.154435,-0.169617 -0.298521,-0.362354 -0.32019,-0.428316 -0.02167,-0.06596 -0.06816,-0.119925 -0.103313,-0.119925 -0.03515,0 -0.06391,-0.03259 -0.06391,-0.07239 0,-0.03982 -0.08685,-0.15546 -0.193001,-0.256991 -0.260211,-0.248875 -0.629365,-0.734754 -0.629365,-0.828363 0,-0.04169 -0.04625,-0.0758 -0.102797,-0.0758 -0.05654,0 -0.102796,-0.02825 -0.102796,-0.06276 0,-0.03453 -0.138782,-0.21177 -0.308388,-0.393903 -0.169618,-0.182131 -0.308389,-0.367184 -0.308389,-0.41124 0,-0.04406 -0.02819,-0.09037 -0.06262,-0.102947 -0.03444,-0.0126 -0.23626,-0.238713 -0.448477,-0.502557 -0.543866,-0.676146 -0.746709,-0.919964 -1.026239,-1.233548 -0.134405,-0.150763 -0.244379,-0.294081 -0.244407,-0.318474 -5.5e-5,-0.04239 -0.103227,-0.168187 -0.599642,-0.731108 -0.122467,-0.138868 -0.222697,-0.27322 -0.222725,-0.298545 -2.8e-5,-0.02532 -0.154563,-0.210361 -0.343418,-0.411183 -0.188866,-0.200805 -0.427361,-0.488461 -0.530015,-0.639229 -0.102646,-0.150761 -0.248821,-0.335799 -0.32481,-0.411183 -0.17912,-0.17769 -0.583613,-0.693539 -0.583613,-0.744281 0,-0.02159 -0.100234,-0.14096 -0.222724,-0.265289 -0.12251,-0.124325 -0.299821,-0.329707 -0.394051,-0.456408 -0.09424,-0.126696 -0.225295,-0.288145 -0.291255,-0.358756 -0.06597,-0.07062 -0.119927,-0.145274 -0.119927,-0.165924 0,-0.02071 -0.07103,-0.105445 -0.157829,-0.188452 -0.08681,-0.08301 -0.308169,-0.351374 -0.491918,-0.596371 -0.183755,-0.244995 -0.382565,-0.493711 -0.441813,-0.552698 -0.05924,-0.05898 -0.184821,-0.209379 -0.27905,-0.334198 -0.09424,-0.124815 -0.225294,-0.284716 -0.291255,-0.355329 -0.06596,-0.07062 -0.119926,-0.14555 -0.119926,-0.166521 0,-0.02093 -0.08685,-0.121185 -0.193,-0.222723 -0.218529,-0.209016 -0.629365,-0.729518 -0.629365,-0.797372 0,-0.02464 -0.0707,-0.112729 -0.157125,-0.195734 -0.08642,-0.08301 -0.279159,-0.304224 -0.428316,-0.491596 -0.392238,-0.492727 -0.518515,-0.644012 -0.768205,-0.920334 -0.122595,-0.135664 -0.240313,-0.300633 -0.26161,-0.366591 -0.02135,-0.06597 -0.06748,-0.119927 -0.102624,-0.119927 -0.03515,0 -0.06391,-0.03257 -0.06391,-0.07239 0,-0.0398 -0.08685,-0.155459 -0.193,-0.256988 -0.106167,-0.101515 -0.297206,-0.323371 -0.424552,-0.492984 -0.127357,-0.169617 -0.279498,-0.356992 -0.338109,-0.416398 -0.154499,-0.156592 -0.576127,-0.678747 -0.646419,-0.800541 -0.06093,-0.105574 -0.231152,-0.311323 -0.497589,-0.601432 -0.08059,-0.08777 -0.24773,-0.300463 -0.371404,-0.472677 -0.123662,-0.172223 -0.250471,-0.313113 -0.281773,-0.313113 -0.03131,0 -0.05691,-0.02825 -0.05691,-0.06276 0,-0.03453 -0.138782,-0.211771 -0.308386,-0.393904 -0.169617,-0.182131 -0.308388,-0.367184 -0.308388,-0.411239 0,-0.04406 -0.02819,-0.09037 -0.06261,-0.102948 -0.05583,-0.02029 -0.233434,-0.229587 -1.012144,-1.19234 -0.119948,-0.148305 -0.328095,-0.393006 -0.462528,-0.543772 -0.134426,-0.150762 -0.244448,-0.306409 -0.244478,-0.345868 -3e-5,-0.03946 -0.09126,-0.147387 -0.202737,-0.239857 -0.111492,-0.09246 -0.203999,-0.1893285 -0.2056,-0.2152796 -0.0016,-0.025947 -0.09541,-0.1484551 -0.208482,-0.272264 -0.113071,-0.1238122 -0.205599,-0.24803 -0.205599,-0.276066 0,-0.028039 -0.100213,-0.1533667 -0.222723,-0.2785158 C 71.29331,8.8459427 71.030276,8.527189 70.863275,8.2795088 70.806731,8.1956503 70.683386,8.0457303 70.589152,7.9463367 70.360744,7.7054109 69.972377,7.2121925 69.972377,7.1630477 c 0,-0.02159 -0.100234,-0.1409812 -0.222724,-0.2652911 -0.122509,-0.1243248 -0.299822,-0.3297064 -0.394051,-0.456408 -0.09424,-0.126695 -0.225294,-0.2881444 -0.291255,-0.3587567 -0.06596,-0.070619 -0.119926,-0.1416004 -0.119926,-0.1577656 0,-0.016229 -0.11149,-0.1472167 -0.247748,-0.2912558 C 68.56041,5.4895356 68.358478,5.2406361 68.247931,5.0804468 68.13738,4.9202466 68.028934,4.789191 68.006926,4.789191 c -0.04465,0 -0.501646,0.4726692 -0.501646,0.5188586 0,0.016229 -0.05396,0.085973 -0.119927,0.1551391 -0.06596,0.069167 -0.166179,0.1970576 -0.222723,0.2841874 -0.05654,0.087147 -0.187598,0.2474817 -0.291256,0.3563203 -0.103658,0.1088429 -0.188452,0.2122405 -0.188452,0.2297916 0,0.01751 -0.05396,0.089667 -0.119925,0.1602855 -0.06596,0.070619 -0.197016,0.2302336 -0.291254,0.3547123 -0.09424,0.1244743 -0.208098,0.2631812 -0.253048,0.3082282 -0.04495,0.045036 -0.24196,0.294036 -0.437805,0.5533159 -0.19584,0.2592797 -0.428908,0.539331 -0.517921,0.6223394 -0.08901,0.083004 -0.161844,0.1703434 -0.161844,0.194068 0,0.05567 -0.465844,0.6377979 -0.667315,0.8339009 -0.08527,0.083004 -0.155052,0.1763655 -0.155052,0.2074575 0,0.031093 -0.0925,0.1578293 -0.2056,0.2816243 -0.113071,0.1237917 -0.206902,0.246318 -0.208482,0.272262 -0.0016,0.02595 -0.09411,0.122808 -0.205599,0.215281 -0.11147,0.09246 -0.202717,0.200389 -0.202738,0.239856 -3e-5,0.03946 -0.110039,0.195092 -0.244477,0.345868 -0.34234,0.383933 -0.669755,0.785509 -0.740767,0.908551 -0.06654,0.11527 -0.237372,0.322365 -0.573444,0.695108 -0.122318,0.135664 -0.222544,0.268731 -0.222726,0.295699 -2.05e-4,0.02697 -0.09285,0.143672 -0.205919,0.259353 -0.113072,0.115676 -0.205599,0.240093 -0.205599,0.276485 0,0.03639 -0.0256,0.06618 -0.05691,0.06618 -0.03131,0 -0.158107,0.140896 -0.281774,0.313112 -0.123685,0.172222 -0.290806,0.384917 -0.371403,0.472678 -0.277913,0.302605 -0.437046,0.496883 -0.463081,0.565342 -0.02786,0.07324 -0.494606,0.647829 -0.694286,0.854675 -0.06596,0.06833 -0.119927,0.150164 -0.119927,0.181853 0,0.03168 -0.138782,0.204532 -0.308386,0.384104 -0.169617,0.179569 -0.308388,0.354083 -0.308388,0.387821 0,0.03374 -0.03005,0.06135 -0.06677,0.06135 -0.03672,0 -0.112579,0.0886 -0.168592,0.196886 -0.056,0.108289 -0.21098,0.3093 -0.344411,0.446696 -0.133422,0.137394 -0.242602,0.28009 -0.242602,0.317097 0,0.037 -0.02419,0.06729 -0.05374,0.06729 -0.02958,0 -0.107502,0.09098 -0.173185,0.202182 -0.06568,0.111192 -0.204446,0.28852 -0.308334,0.394051 -0.103884,0.105531 -0.339499,0.392324 -0.523554,0.637319 -0.184053,0.244999 -0.42202,0.528518 -0.528809,0.630045 -0.10679,0.101515 -0.194152,0.205022 -0.194152,0.229997 0,0.06257 -0.404626,0.572836 -0.633908,0.799422 -0.103658,0.102441 -0.188452,0.205962 -0.188452,0.230088 0,0.05294 -0.37901,0.537091 -0.616774,0.787885 -0.09424,0.09938 -0.217583,0.250936 -0.274121,0.336759 -0.165261,0.250881 -0.558121,0.71872 -0.624381,0.743564 -0.0335,0.0126 -0.06093,0.0511 -0.06093,0.08568 0,0.03455 -0.05396,0.120587 -0.119926,0.191207 -0.06597,0.07062 -0.197015,0.230233 -0.291253,0.354714 -0.09424,0.124474 -0.208696,0.263775 -0.254369,0.309546 -0.04568,0.04577 -0.243932,0.294762 -0.440577,0.553315 -0.196653,0.258554 -0.429116,0.538014 -0.516602,0.621019 -0.08749,0.08301 -0.159068,0.171007 -0.159068,0.195563 0,0.06139 -0.686686,0.881591 -0.761794,0.909915 -0.03331,0.0126 -0.0606,0.05883 -0.06062,0.102796 -2.8e-5,0.04397 -0.100256,0.193577 -0.222723,0.332453 -0.496422,0.562922 -0.599591,0.688712 -0.599643,0.731107 -2.9e-5,0.02438 -0.100256,0.157231 -0.222725,0.295183 -0.328113,0.369608 -0.477324,0.55237 -0.665613,0.81528 -0.09285,0.129642 -0.236906,0.312879 -0.320115,0.407174 -0.476949,0.540492 -0.571202,0.655831 -0.572194,0.700194 -6.16e-4,0.02697 -0.09361,0.143672 -0.206687,0.259354 -0.113072,0.115678 -0.2056,0.240092 -0.2056,0.276486 0,0.03639 -0.04625,0.06616 -0.102796,0.06616 -0.05654,0 -0.102796,0.03411 -0.102796,0.0758 0,0.07534 -0.364092,0.581254 -0.512611,0.712301 -0.04271,0.03769 -0.204489,0.241145 -0.35947,0.452118 -0.15499,0.210981 -0.3232,0.426846 -0.373792,0.479714 -0.05059,0.05287 -0.258949,0.311998 -0.463011,0.57584 -0.204062,0.263842 -0.442719,0.547628 -0.530351,0.630634 -0.08764,0.08301 -0.159325,0.179931 -0.159325,0.215392 0,0.03545 -0.04625,0.08221 -0.102797,0.103916 -0.05654,0.02169 -0.102796,0.0801 -0.102796,0.129792 0,0.04969 -0.138782,0.237248 -0.308386,0.416804 -0.169617,0.179547 -0.308388,0.355741 -0.308388,0.391525 0,0.03579 -0.02877,0.06507 -0.06391,0.06507 -0.03515,0 -0.08114,0.05396 -0.102226,0.119927 -0.02114,0.06596 -0.180678,0.272589 -0.354686,0.459177 -0.173995,0.186594 -0.367,0.417863 -0.428882,0.513949 -0.146983,0.228236 -0.334742,0.455701 -0.609361,0.738264 -0.122489,0.126034 -0.222723,0.24683 -0.222723,0.26842 0,0.0575 -0.415356,0.577292 -0.633908,0.793274 -0.103657,0.10243 -0.188451,0.205984 -0.188451,0.230088 0,0.05441 -0.396766,0.563519 -0.583613,0.748877 -0.07598,0.07538 -0.222024,0.260416 -0.32452,0.411181 -0.102505,0.150761 -0.29474,0.391485 -0.427212,0.534926 -0.132482,0.143437 -0.240858,0.282282 -0.240858,0.308536 0,0.02625 -0.138781,0.196737 -0.308386,0.37887 -0.169617,0.182131 -0.308388,0.359382 -0.308388,0.393904 0,0.03453 -0.02831,0.06276 -0.06293,0.06276 -0.03461,0 -0.132204,0.115655 -0.21687,0.256988 -0.08467,0.141344 -0.241371,0.340058 -0.348242,0.441586 -0.106877,0.101515 -0.194303,0.217174 -0.194303,0.256989 0,0.03982 -0.02832,0.07239 -0.06295,0.07239 -0.03461,0 -0.131734,0.11132 -0.215818,0.24736 -0.08407,0.136048 -0.228968,0.328792 -0.321968,0.428316 -0.093,0.09953 -0.309042,0.365987 -0.480094,0.592138 -0.171048,0.22615 -0.358384,0.449733 -0.41629,0.496847 -0.08441,0.06868 1.113563,0.08568 6.041293,0.08568 h 6.146583 z"
     id="path300" /></svg>
