<?xml version="1.0" encoding="UTF-8" standalone="no"?>
<svg
   width="138"
   height="56"
   viewBox="0 0 138 56"
   fill="none"
   version="1.1"
   id="svg26"
   sodipodi:docname="logo.svg"
   inkscape:version="1.2.2 (732a01da63, 2022-12-09)"
   xml:space="preserve"
   xmlns:inkscape="http://www.inkscape.org/namespaces/inkscape"
   xmlns:sodipodi="http://sodipodi.sourceforge.net/DTD/sodipodi-0.dtd"
   xmlns="http://www.w3.org/2000/svg"
   xmlns:svg="http://www.w3.org/2000/svg"><defs
     id="defs30" /><sodipodi:namedview
     id="namedview28"
     pagecolor="#ffffff"
     bordercolor="#666666"
     borderopacity="1.0"
     inkscape:showpageshadow="2"
     inkscape:pageopacity="0.0"
     inkscape:pagecheckerboard="0"
     inkscape:deskcolor="#d1d1d1"
     showgrid="false"
     inkscape:zoom="4.3840579"
     inkscape:cx="50.866117"
     inkscape:cy="8.0975208"
     inkscape:window-width="1366"
     inkscape:window-height="706"
     inkscape:window-x="1392"
     inkscape:window-y="161"
     inkscape:window-maximized="1"
     inkscape:current-layer="svg26" /><path
     id="path300"
     style="fill:#ffffff;stroke-width:0.129851"
     d="m 68.116629,-60.479576 c -0.245581,-0.0041 -0.45373,0.02007 -0.617272,0.06072 h 1.24988 c -0.204289,-0.0343 -0.425047,-0.05733 -0.632608,-0.06072 z M 8.7013791,22.602049 5.8757334,30.23221 c -1.701744,4.595472 -3.1157318,8.433376 -3.1400336,8.526781 -0.035946,0.137902 0.3122168,0.164257 1.8633162,0.135744 l 1.909323,-0.03573 0.6632801,-1.911111 0.6632801,-1.911114 h 3.4620858 3.462088 l 0.678617,1.911114 0.678615,1.911111 1.974501,0.03573 1.970667,0.03215 -0.141855,-0.3465 C 19.727182,38.115699 14.444642,23.86218 13.996111,22.602052 Z m 13.8483499,0 -0.03068,7.826631 -0.0345,8.494632 h 1.886321 1.882485 v -3.511447 -3.507876 h 1.311224 c 2.638901,0.0014 2.745174,0.102271 4.171374,4.100855 l 1.03901,2.918468 h 1.909323 1.913157 L 35.53927,35.990555 c -0.581933,-1.611838 -1.210873,-3.207577 -1.395572,-3.547169 -0.351647,-0.646551 -1.190945,-1.494021 -1.598771,-1.614623 -0.382384,-0.113084 -0.280161,-0.223417 0.494585,-0.535825 0.976713,-0.393844 1.759102,-1.038184 2.200707,-1.818236 0.332251,-0.58721 0.364265,-0.768219 0.364228,-2.025423 -5.4e-5,-1.676404 -0.277291,-2.373449 -1.292053,-3.257823 -0.27527,-0.239902 -0.532684,-0.427293 -0.805135,-0.589407 z m 17.084233,0 -0.03068,7.826631 -0.0345,8.494632 4.81165,-0.0036 c 5.248057,-0.002 5.921629,-0.06964 7.200222,-0.718007 2.025236,-1.027004 2.998593,-3.530132 2.258219,-5.801211 -0.253491,-0.777577 -0.411196,-1.018964 -1.062015,-1.625337 -0.526962,-0.49098 -0.994097,-0.791219 -1.502922,-0.968059 -0.406107,-0.141148 -0.717017,-0.304958 -0.693952,-0.364364 0.02321,-0.05939 0.320032,-0.305254 0.659447,-0.546542 0.345639,-0.245693 0.797852,-0.742701 1.031339,-1.128808 0.380538,-0.62952 0.418579,-0.788115 0.417905,-1.818236 -5.44e-4,-0.88052 -0.06314,-1.251555 -0.283714,-1.696783 -0.365395,-0.737552 -0.897519,-1.275932 -1.598771,-1.650343 z m 17.83186,0 v 7.798054 8.523209 h 1.882485 1.882485 v -8.523209 -7.798054 z m 11.670646,0 c -1.279838,0.641561 -2.307081,1.579452 -2.967502,2.757718 -0.853059,1.521943 -1.066575,2.370187 -1.138695,4.55452 -0.07019,2.125892 0.122327,3.449633 0.674782,4.683121 0.43091,0.962087 1.393318,2.255583 2.093355,2.814874 0.816047,0.651972 2.329696,1.350017 3.408412,1.568184 1.154786,0.23358 3.602357,0.23277 4.662126,0 1.984567,-0.435903 3.634533,-1.632391 4.451254,-3.229246 0.69726,-1.36329 0.688177,-1.394845 -0.724624,-2.107582 -1.254959,-0.633109 -1.817308,-0.761833 -1.817308,-0.417945 0,0.441895 -0.72148,1.57706 -1.307389,2.057571 -0.834332,0.684274 -1.744999,0.924573 -3.255052,0.857322 -2.247008,-0.100096 -3.610888,-1.191371 -4.198213,-3.361414 -0.247409,-0.914247 -0.247357,-3.846916 0,-4.761709 0.576036,-2.130127 1.960573,-3.235608 4.194379,-3.354271 2.043108,-0.108535 3.371094,0.498835 4.175209,1.911112 0.176703,0.310315 0.382121,0.562437 0.456244,0.560833 0.07411,-0.0015 0.757033,-0.358214 1.514424,-0.793024 l 1.3764,-0.789449 -0.360393,-0.678713 c -0.507813,-0.955442 -1.347814,-1.720239 -2.415411,-2.271902 z m 17.693836,0 c -1.959603,1.001441 -3.324816,2.741442 -3.891494,5.101064 -0.351476,1.463607 -0.321204,4.149669 0.06134,5.608312 0.773355,2.94879 2.745687,4.885922 5.704968,5.608312 0.666713,0.162744 1.454065,0.241726 2.469086,0.246481 4.990047,0.0231 8.033677,-2.636831 8.522949,-7.447984 0.442887,-4.355049 -1.08276,-7.590621 -4.060191,-9.116185 z m 16.643326,0 v 7.787337 8.533926 h 1.88249 1.88249 v -3.511447 -3.507876 h 1.38023 c 1.66299,0.0033 2.31604,0.226792 2.79113,0.943054 0.17186,0.259078 0.74505,1.715787 1.27289,3.239961 l 0.9585,2.772006 1.91315,0.03573 c 1.0505,0.01935 1.90933,0.01711 1.90933,-0.0036 0,-0.187582 -2.18016,-6.047105 -2.39624,-6.440629 -0.37928,-0.690705 -0.91567,-1.269201 -1.3879,-1.496741 -0.21316,-0.102708 -0.38724,-0.23135 -0.38724,-0.289346 0,-0.05796 0.29937,-0.22196 0.66712,-0.364361 0.88836,-0.343974 1.92466,-1.266199 2.27355,-2.021852 0.84459,-1.829255 0.26174,-4.256631 -1.28823,-5.354688 -0.14573,-0.103252 -0.40304,-0.203631 -0.62876,-0.321496 z m 17.08424,0 v 7.798054 8.523209 h 1.88248 1.88248 v -3.118509 -3.118509 l 2.45759,-0.06072 c 1.99394,-0.04964 2.6158,-0.109733 3.31639,-0.321495 1.64127,-0.496028 2.89633,-1.600113 3.45059,-3.032776 0.30132,-0.779005 0.40462,-2.563721 0.19554,-3.40071 -0.35489,-1.420668 -1.34644,-2.648896 -2.59179,-3.268538 z m -77.22028,1.903967 2.120194,0.0036 c 1.789951,0.0023 2.204483,0.04177 2.679955,0.242909 0.740403,0.313197 1.032622,0.834762 1.035173,1.857531 0.0021,0.847469 -0.195348,1.214378 -0.908652,1.711071 -0.334042,0.232631 -0.599388,0.265756 -2.649283,0.303634 l -2.277387,0.0393 v -2.079076 z m -17.084232,0.128599 h 2.043514 c 1.801807,0 2.110191,0.028 2.626278,0.260769 0.836892,0.37747 1.161017,1.009388 1.092685,2.136159 -0.05821,0.959778 -0.310159,1.385655 -1.065848,1.800377 -0.393499,0.215979 -0.751161,0.256595 -2.576436,0.292918 l -2.120193,0.04287 v -2.268331 z m 80.985252,0 h 1.98983 c 1.79644,0 2.0487,0.02757 2.58794,0.282201 0.82435,0.38931 1.1387,0.935405 1.1387,1.971841 0,0.966438 -0.30403,1.552098 -1.01217,1.939689 -0.4037,0.220972 -0.74898,0.261382 -2.58411,0.300063 l -2.12019,0.04287 v -2.26833 z m 17.08422,0 h 1.78281 c 1.99088,7.79e-4 2.59488,0.109783 3.19753,0.582264 0.56649,0.444108 0.80514,1.049303 0.80514,2.036138 0,1.126574 -0.38014,1.839205 -1.2077,2.261186 -0.5454,0.278091 -0.79603,0.313256 -2.59177,0.36079 l -1.98601,0.05358 v -2.64698 z m -32.711548,0.02501 c 0.864473,0.04256 1.621272,0.246423 2.219876,0.600124 1.337096,0.790057 1.949962,2.146591 2.070353,4.5831 0.156972,3.177229 -0.635087,5.059965 -2.480588,5.90123 -0.632907,0.288514 -0.970995,0.353309 -1.98217,0.382224 -3.367775,0.09603 -4.908493,-1.672654 -4.915167,-5.640464 -0.0065,-3.769852 1.323947,-5.613967 4.190546,-5.815497 0.310163,-0.02181 0.608994,-0.0249 0.89715,-0.01071 z m -80.352636,0.889471 c 0.116858,-0.0363 1.218639,2.8625 2.162368,5.694046 l 0.302885,0.910905 h -2.411577 c -1.3260732,0 -2.4089523,-0.04475 -2.4077431,-0.09645 0.00648,-0.292528 2.2420981,-6.473749 2.3540671,-6.508501 z m 32.078944,5.726195 2.522762,0.0036 c 2.164155,0.0023 2.601669,0.03725 3.063352,0.235763 0.944173,0.406011 1.410906,1.131832 1.410906,2.193316 0,1.139317 -0.653308,2.084936 -1.610271,2.33263 -0.262244,0.06788 -1.578867,0.121454 -2.929165,0.121454 l -2.457584,0.0036 v -2.44694 z" /></svg>
